<svg xmlns="http://www.w3.org/2000/svg" xmlns:xlink="http://www.w3.org/1999/xlink" viewBox="0 0 841.89 595.28"><defs><style>.cls-1,.cls-2,.cls-3,.cls-4{fill:#bcbec0;}.cls-1,.cls-2,.cls-3{stroke:#bcbec0;}.cls-1,.cls-10,.cls-11,.cls-12,.cls-2,.cls-3,.cls-4,.cls-5,.cls-6,.cls-7,.cls-8,.cls-9{stroke-miterlimit:10;}.cls-1{stroke-width:1.24px;}.cls-2{stroke-width:1.7px;}.cls-3{stroke-width:6.34px;}.cls-4,.cls-5,.cls-6,.cls-7,.cls-8{stroke:#808285;}.cls-12,.cls-4,.cls-5,.cls-9{stroke-width:1.16px;}.cls-5,.cls-6,.cls-7,.cls-8{fill:#808285;}.cls-6{stroke-width:7.24px;}.cls-7{stroke-width:6.61px;}.cls-8{stroke-width:5.85px;}.cls-10,.cls-11,.cls-16,.cls-9{fill:#231f20;}.cls-10,.cls-11,.cls-12,.cls-9{stroke:#231f20;}.cls-10{stroke-width:1.35px;}.cls-11{stroke-width:1.84px;}.cls-12{fill:url(#linear-gradient);}.cls-13{fill:#ed1c24;}.cls-14{fill:#fff200;}.cls-15{fill:#2e3192;}</style><linearGradient id="linear-gradient" x1="420.94" y1="355.6" x2="420.94" y2="129.44" gradientUnits="userSpaceOnUse"><stop offset="0" stop-color="#ec008c"/><stop offset="0.17" stop-color="#ec0489"/><stop offset="0.33" stop-color="#ed0f81"/><stop offset="0.48" stop-color="#ef2273"/><stop offset="0.63" stop-color="#f03c5f"/><stop offset="0.78" stop-color="#f35f45"/><stop offset="0.93" stop-color="#f68826"/><stop offset="0.97" stop-color="#f7941d"/></linearGradient></defs><g id="Layer_3" data-name="Layer 3"><rect class="cls-1" x="179.41" y="443.77" width="17.89" height="15.62"/><rect class="cls-1" x="168.74" y="443.77" width="17.89" height="15.62"/><rect class="cls-1" x="168.46" y="458.2" width="17.89" height="15.62"/><rect class="cls-1" x="152.58" y="458.2" width="17.89" height="15.62"/><rect class="cls-2" x="137.7" y="473.43" width="33.63" height="15.62"/><rect class="cls-3" x="186.63" y="427.17" width="466.01" height="15.62"/><rect class="cls-4" x="198.84" y="100.57" width="442.44" height="298.02"/><rect class="cls-5" x="672.51" y="474.61" width="14.43" height="14.43"/><rect class="cls-5" x="687.83" y="474.61" width="14.43" height="14.43"/><rect class="cls-5" x="672.51" y="459.29" width="14.43" height="14.43"/><rect class="cls-5" x="198.84" y="399.29" width="442.44" height="14.43"/><rect class="cls-6" x="126.87" y="503.08" width="560.07" height="14.43"/><rect class="cls-7" x="201.06" y="458.8" width="467.89" height="14.43"/><rect class="cls-8" x="201.06" y="446.5" width="467.89" height="11.3"/><rect class="cls-7" x="201.06" y="474.22" width="467.89" height="14.43"/><rect class="cls-9" x="198.84" y="87.13" width="442.44" height="13.44"/><rect class="cls-9" x="199.63" y="413.72" width="441.65" height="13.44"/><rect class="cls-9" x="183.81" y="100.57" width="15.02" height="326.59"/><rect class="cls-9" x="641.28" y="100.57" width="15.02" height="326.59"/><rect class="cls-9" x="168.19" y="427.17" width="15.62" height="15.62"/><rect class="cls-9" x="152.58" y="442.78" width="15.62" height="15.62"/><rect class="cls-9" x="136.96" y="458.4" width="15.62" height="15.62"/><rect class="cls-9" x="121.34" y="474.02" width="15.62" height="15.62"/><rect class="cls-9" x="656.3" y="427.17" width="15.62" height="15.62"/><rect class="cls-9" x="671.92" y="442.78" width="15.62" height="15.62"/><rect class="cls-9" x="687.54" y="458.4" width="15.62" height="15.62"/><rect class="cls-9" x="703.15" y="474.02" width="15.62" height="15.62"/><rect class="cls-9" x="109.28" y="489.64" width="623.33" height="13.25"/><rect class="cls-9" x="123.71" y="517.71" width="594.07" height="14.83"/><rect class="cls-9" x="109.28" y="502.88" width="14.43" height="14.83"/><rect class="cls-9" x="687.54" y="502.88" width="45.07" height="14.83"/><rect class="cls-9" x="212.08" y="382.98" width="15.62" height="15.62"/><rect class="cls-9" x="286.41" y="382.98" width="15.62" height="15.62"/><rect class="cls-9" x="241.74" y="382.98" width="31.04" height="15.62"/><rect class="cls-10" x="231.26" y="444.36" width="14.43" height="14.43"/><rect class="cls-10" x="216.83" y="458.8" width="14.43" height="14.43"/><rect class="cls-10" x="272.77" y="444.36" width="14.43" height="14.43"/><rect class="cls-10" x="258.34" y="458.8" width="14.43" height="14.43"/><rect class="cls-10" x="318.22" y="444.36" width="14.43" height="14.43"/><rect class="cls-10" x="303.79" y="458.8" width="14.43" height="14.43"/><rect class="cls-10" x="362.93" y="444.36" width="14.43" height="14.43"/><rect class="cls-10" x="348.5" y="458.8" width="14.43" height="14.43"/><rect class="cls-10" x="467.02" y="444.36" width="14.43" height="14.43" transform="translate(948.47 903.16) rotate(-180)"/><rect class="cls-10" x="481.45" y="458.8" width="14.43" height="14.43" transform="translate(977.34 932.02) rotate(-180)"/><rect class="cls-10" x="510.93" y="444.36" width="14.43" height="14.43" transform="translate(1036.29 903.16) rotate(-180)"/><rect class="cls-10" x="525.36" y="458.8" width="14.43" height="14.43" transform="translate(1065.15 932.02) rotate(-180)"/><rect class="cls-10" x="554.98" y="443.97" width="14.43" height="14.43" transform="translate(1124.39 902.37) rotate(-180)"/><rect class="cls-10" x="569.41" y="458.4" width="14.43" height="14.43" transform="translate(1153.26 931.23) rotate(-180)"/><rect class="cls-10" x="601.04" y="443.97" width="14.43" height="14.43" transform="translate(1216.52 902.37) rotate(-180)"/><rect class="cls-10" x="615.48" y="458.4" width="14.43" height="14.43" transform="translate(1245.38 931.23) rotate(-180)"/><rect class="cls-11" x="407.65" y="444.36" width="26.94" height="14.43"/><rect class="cls-10" x="393.22" y="458.8" width="14.43" height="14.43"/><rect class="cls-10" x="434.59" y="458.8" width="14.43" height="14.43"/><polygon class="cls-9" points="628.23 369.04 213.66 369.04 213.66 115.99 628.03 115.99 628.23 369.04"/><polygon class="cls-12" points="613.6 355.6 228.29 355.6 228.29 129.44 613.41 129.44 613.6 355.6"/><rect class="cls-13" x="310.81" y="212.11" width="68.88" height="64.66"/><rect class="cls-14" x="386.42" y="212.11" width="73.42" height="64.66"/><polygon class="cls-15" points="493.17 212.11 462.2 212.11 462.2 275.07 493.17 275.07 493.17 247.52 526.14 247.52 526.14 212.11 493.17 212.11"/><path class="cls-16" d="M306.59,212.11v-8.45H315v8.45Zm0,8.24v-8.24H315v8.24Zm0,8.44v-8.44H315v8.44Zm0,8.45v-8.45H315v8.45Zm0,8.41v-8.41H315v8.41Zm0,8.44v-8.44H315v8.44Zm0,8.41v-8.41H315v8.41Zm0,8.45V262.5H315V271Zm0,8.24V271H315v8.24ZM315,212.11v-8.45h8.41v8.45Zm0,67.08V271h8.41v8.24Zm8.41,0v8.32H315v-8.32Zm0-67.08v-8.45h8.45v8.45Zm0,67.08V271h8.45v8.24Zm8.45,0v8.32h-8.45v-8.32Zm0-67.08v-8.45h8.23v8.45Zm0,8.24v-8.24h8.23v8.24Zm0,8.44v-8.44h8.23v8.44Zm0,8.45v-8.45h8.23v8.45Zm0,16.85v-8.44h8.23v8.44Zm0,8.41v-8.41h8.23v8.41Zm0,8.45V262.5h8.23V271Zm0,8.24V271h8.23v8.24Zm8.23,0v8.32h-8.23v-8.32Zm0-58.84v-8.24h8.45v8.24Zm0,8.44v-8.44h8.45v8.44Zm0,8.45v-8.45h8.45v8.45Zm0,16.85v-8.44h8.45v8.44Zm0,8.41v-8.41h8.45v8.41Zm0,8.45V262.5h8.45V271Zm0,8.24V271h8.45v8.24Zm8.45,0v8.32h-8.45v-8.32Zm0-67.08v-8.45H357v8.45Zm0,8.24v-8.24H357v8.24Zm0,8.44v-8.44H357v8.44Zm0,8.45v-8.45H357v8.45Zm0,16.85v-8.44H357v8.44Zm0,8.41v-8.41H357v8.41Zm0,8.45V262.5H357V271Zm0,8.24V271H357v8.24ZM357,212.11v-8.45h8.41v8.45Zm0,67.08V271h8.41v8.24Zm8.41,0v8.32H357v-8.32Zm0-67.08v-8.45h8.44v8.45Zm0,67.08V271h8.44v8.24Zm8.44,0v8.32h-8.44v-8.32Zm0-67.08v-8.45h8.41v8.45Zm0,8.24v-8.24h8.41v8.24Zm0,8.44v-8.44h8.41v8.44Zm0,8.45v-8.45h8.41v8.45Zm0,8.41v-8.41h8.41v8.41Zm0,8.44v-8.44h8.41v8.44Zm0,8.41v-8.41h8.41v8.41Zm0,8.45V262.5h8.41V271Zm0,8.24V271h8.41v8.24Zm8.41,0v8.32h-8.41v-8.32Zm0-58.84v-8.24h8.28v8.24Zm0,8.44v-8.44h8.28v8.44Zm0,8.45v-8.45h8.28v8.45Zm0,8.41v-8.41h8.28v8.41Zm0,8.44v-8.44h8.28v8.44Zm0,8.41v-8.41h8.28v8.41Zm0,8.45V262.5h8.28V271Zm0,8.24V271h8.28v8.24Zm8.28,0v8.32h-8.28v-8.32Z"/><path class="cls-16" d="M382.28,220.35v-8.24h8.45v8.24Zm0,8.44v-8.44h8.45v8.44Zm0,8.45v-8.45h8.45v8.45Zm0,8.41v-8.41h8.45v8.41Zm0,8.44v-8.44h8.45v8.44Zm0,8.41v-8.41h8.45v8.41Zm0,8.45V262.5h8.45V271Zm8.45-58.84v-8.45h8.4v8.45Zm0,8.24v-8.24h8.4v8.24Zm0,50.6V262.5h8.4V271Zm0,8.24V271h8.4v8.24Zm8.4-67.08v-8.45h8.45v8.45Zm0,67.08V271h8.45v8.24Zm8.45,0v8.32h-8.45v-8.32Zm0-67.08v-8.45h8.24v8.45Zm0,16.68v-8.44h8.24v8.44Zm0,8.45v-8.45h8.24v8.45Zm0,8.41v-8.41h8.24v8.41Zm0,8.44v-8.44h8.24v8.44Zm0,8.41v-8.41h8.24v8.41Zm0,16.69V271h8.24v8.24Zm8.24,0v8.32h-8.24v-8.32Zm0-67.08v-8.45h8.45v8.45Zm0,16.68v-8.44h8.45v8.44Zm0,8.45v-8.45h8.45v8.45Zm0,8.41v-8.41h8.45v8.41Zm0,8.44v-8.44h8.45v8.44Zm0,8.41v-8.41h8.45v8.41Zm0,16.69V271h8.45v8.24Zm8.45,0v8.32h-8.45v-8.32Zm0-67.08v-8.45h8.44v8.45Zm0,16.68v-8.44h8.44v8.44Zm0,8.45v-8.45h8.44v8.45Zm0,8.41v-8.41h8.44v8.41Zm0,8.44v-8.44h8.44v8.44Zm0,8.41v-8.41h8.44v8.41Zm0,16.69V271h8.44v8.24Zm8.44,0v8.32h-8.44v-8.32Zm0-67.08v-8.45h8.41v8.45Zm0,67.08V271h8.41v8.24Zm8.41,0v8.32h-8.41v-8.32Zm0-67.08v-8.45h8.45v8.45Zm0,8.24v-8.24h8.45v8.24Zm0,50.6V262.5h8.45V271Zm0,8.24V271h8.45v8.24Zm8.45,0v8.32h-8.45v-8.32Zm0-58.84v-8.24H458v8.24Zm0,8.44v-8.44H458v8.44Zm0,8.45v-8.45H458v8.45Zm0,8.41v-8.41H458v8.41Zm0,8.44v-8.44H458v8.44Zm0,8.41v-8.41H458v8.41Zm0,8.45V262.5H458V271Zm0,8.24V271H458v8.24Zm8.4,0v8.32h-8.4v-8.32Zm0-50.4v-8.44h8.28v8.44Zm0,8.45v-8.45h8.28v8.45Zm0,8.41v-8.41h8.28v8.41Zm0,8.44v-8.44h8.28v8.44Zm0,8.41v-8.41h8.28v8.41Zm0,8.45V262.5h8.28V271Zm0,8.24V271h8.28v8.24Z"/><path class="cls-16" d="M458,212.11v-8.45h8.45v8.45Zm0,8.24v-8.24h8.45v8.24Zm0,8.44v-8.44h8.45v8.44Zm0,8.45v-8.45h8.45v8.45Zm0,8.41v-8.41h8.45v8.41Zm0,8.44v-8.44h8.45v8.44Zm0,8.41v-8.41h8.45v8.41Zm0,8.45V262.5h8.45V271Zm0,8.24V271h8.45v8.24Zm8.45-67.08v-8.45h8.41v8.45Zm0,67.08V271h8.41v8.24Zm8.41,0v8.32h-8.41v-8.32Zm0-67.08v-8.45h8.44v8.45Zm0,67.08V271h8.44v8.24Zm8.44,0v8.32h-8.44v-8.32Zm0-67.08v-8.45h8.24v8.45Zm0,16.68v-8.44h8.24v8.44Zm0,8.45v-8.45h8.24v8.45Zm0,16.85v-8.44h8.24v8.44Zm0,8.41v-8.41h8.24v8.41Zm0,8.45V262.5h8.24V271Zm0,8.24V271h8.24v8.24Zm8.24,0v8.32h-8.24v-8.32Zm0-67.08v-8.45H500v8.45Zm0,16.68v-8.44H500v8.44Zm0,8.45v-8.45H500v8.45Zm0,16.85v-8.44H500v8.44Zm0,8.41v-8.41H500v8.41Zm0,8.45V262.5H500V271Zm0,8.24V271H500v8.24Zm8.45,0v8.32h-8.45v-8.32Zm0-67.08v-8.45h8.45v8.45Zm0,16.68v-8.44h8.45v8.44Zm0,8.45v-8.45h8.45v8.45Zm0,16.85v-8.44h8.45v8.44Zm0,8.41v-8.41h8.45v8.41Zm8.45-50.39v-8.45h8.4v8.45Zm0,16.68v-8.44h8.4v8.44Zm0,8.45v-8.45h8.4v8.45Zm0,16.85v-8.44h8.4v8.44Zm0,8.41v-8.41h8.4v8.41Zm8.4-50.39v-8.45h8.45v8.45Zm0,16.68v-8.44h8.45v8.44Zm0,8.45v-8.45h8.45v8.45Zm0,8.41v-8.41h8.45v8.41Zm0,8.44v-8.44h8.45v8.44Zm0,8.41v-8.41h8.45v8.41Zm8.45-50.39v-8.45h8.41v8.45Zm0,8.24v-8.24h8.41v8.24Zm0,8.44v-8.44h8.41v8.44Zm0,8.45v-8.45h8.41v8.45Zm0,8.41v-8.41h8.41v8.41Zm0,8.44v-8.44h8.41v8.44Zm0,8.41v-8.41h8.41v8.41Zm8.41-42.15v-8.24H542v8.24Zm0,8.44v-8.44H542v8.44Zm0,8.45v-8.45H542v8.45Z"/><rect class="cls-5" x="186.63" y="474.02" width="14.43" height="14.43"/><rect class="cls-5" x="186.63" y="458.8" width="14.43" height="14.43"/><rect class="cls-5" x="172.2" y="474.02" width="14.43" height="14.43"/></g></svg>