<svg xmlns="http://www.w3.org/2000/svg" viewBox="0 0 841.89 595.28"><defs><style>.cls-1{fill:#b3b3b3;}.cls-2,.cls-3,.cls-4{fill:#bcbec0;stroke:#bcbec0;}.cls-10,.cls-11,.cls-2,.cls-3,.cls-4,.cls-5,.cls-6,.cls-7,.cls-8,.cls-9{stroke-miterlimit:10;}.cls-2{stroke-width:1.16px;}.cls-3{stroke-width:1.58px;}.cls-4{stroke-width:5.9px;}.cls-5,.cls-6,.cls-7,.cls-8{fill:#808285;stroke:#808285;}.cls-5,.cls-9{stroke-width:1.08px;}.cls-6{stroke-width:6.72px;}.cls-7{stroke-width:6.15px;}.cls-8{stroke-width:5.44px;}.cls-10,.cls-11,.cls-15,.cls-9{fill:#231f20;}.cls-10,.cls-11,.cls-9{stroke:#231f20;}.cls-10{stroke-width:1.25px;}.cls-11{stroke-width:1.71px;}.cls-12{fill:#ed1c24;}.cls-13{fill:#fff200;}.cls-14{fill:#ed2e92;}</style></defs><g id="Layer_3" data-name="Layer 3"><path class="cls-1" d="M214.51,106.25v277H625.73v-277Zm27.38,237V133.08H599.83l.17,210.2Z"/><rect class="cls-2" x="196.46" y="425.23" width="16.63" height="14.52"/><rect class="cls-2" x="186.54" y="425.23" width="16.63" height="14.52"/><rect class="cls-2" x="186.28" y="438.64" width="16.63" height="14.52"/><rect class="cls-2" x="171.51" y="438.64" width="16.63" height="14.52"/><rect class="cls-3" x="157.69" y="452.79" width="31.26" height="14.52"/><rect class="cls-4" x="203.16" y="409.8" width="433.13" height="14.52"/><rect class="cls-5" x="654.76" y="453.89" width="13.41" height="13.41"/><rect class="cls-5" x="669" y="453.89" width="13.41" height="13.41"/><rect class="cls-5" x="654.76" y="439.65" width="13.41" height="13.41"/><rect class="cls-5" x="214.51" y="383.89" width="411.22" height="13.41"/><rect class="cls-6" x="147.63" y="480.35" width="520.54" height="13.41"/><rect class="cls-7" x="216.58" y="439.19" width="434.87" height="13.41"/><rect class="cls-8" x="216.58" y="427.77" width="434.87" height="10.51"/><rect class="cls-7" x="216.58" y="453.53" width="434.87" height="13.41"/><rect class="cls-9" x="214.51" y="93.76" width="411.22" height="12.49"/><rect class="cls-9" x="215.25" y="397.3" width="410.48" height="12.49"/><rect class="cls-9" x="200.55" y="106.25" width="13.96" height="303.54"/><rect class="cls-9" x="625.73" y="106.25" width="13.96" height="303.54"/><rect class="cls-9" x="186.03" y="409.8" width="14.52" height="14.52"/><rect class="cls-9" x="171.51" y="424.31" width="14.52" height="14.52"/><rect class="cls-9" x="157" y="438.83" width="14.52" height="14.52"/><rect class="cls-9" x="142.48" y="453.34" width="14.52" height="14.52"/><rect class="cls-9" x="639.69" y="409.8" width="14.52" height="14.52"/><rect class="cls-9" x="654.21" y="424.31" width="14.52" height="14.52"/><rect class="cls-9" x="668.72" y="438.83" width="14.52" height="14.52"/><rect class="cls-9" x="683.24" y="453.34" width="14.52" height="14.52"/><rect class="cls-9" x="131.27" y="467.86" width="579.34" height="12.31"/><rect class="cls-9" x="144.69" y="493.95" width="552.15" height="13.78"/><rect class="cls-9" x="131.27" y="480.17" width="13.41" height="13.78"/><rect class="cls-9" x="668.72" y="480.17" width="41.89" height="13.78"/><rect class="cls-9" x="226.82" y="368.73" width="14.52" height="14.52"/><rect class="cls-9" x="295.91" y="368.73" width="14.52" height="14.52"/><rect class="cls-9" x="254.38" y="368.73" width="28.85" height="14.52"/><rect class="cls-10" x="244.64" y="425.78" width="13.41" height="13.41"/><rect class="cls-10" x="231.23" y="439.19" width="13.41" height="13.41"/><rect class="cls-10" x="283.23" y="425.78" width="13.41" height="13.41"/><rect class="cls-10" x="269.82" y="439.19" width="13.41" height="13.41"/><rect class="cls-10" x="325.47" y="425.78" width="13.41" height="13.41"/><rect class="cls-10" x="312.05" y="439.19" width="13.41" height="13.41"/><rect class="cls-10" x="367.03" y="425.78" width="13.41" height="13.41"/><rect class="cls-10" x="353.61" y="439.19" width="13.41" height="13.41"/><rect class="cls-10" x="463.77" y="425.78" width="13.41" height="13.41" transform="translate(940.95 864.97) rotate(-180)"/><rect class="cls-10" x="477.18" y="439.19" width="13.41" height="13.41" transform="translate(967.78 891.8) rotate(-180)"/><rect class="cls-10" x="504.58" y="425.78" width="13.41" height="13.41" transform="translate(1022.57 864.97) rotate(-180)"/><rect class="cls-10" x="517.99" y="439.19" width="13.41" height="13.41" transform="translate(1049.39 891.8) rotate(-180)"/><rect class="cls-10" x="545.52" y="425.41" width="13.41" height="13.41" transform="translate(1104.46 864.24) rotate(-180)"/><rect class="cls-10" x="558.94" y="438.83" width="13.41" height="13.41" transform="translate(1131.28 891.07) rotate(-180)"/><rect class="cls-10" x="588.33" y="425.41" width="13.41" height="13.41" transform="translate(1190.08 864.24) rotate(-180)"/><rect class="cls-10" x="601.75" y="438.83" width="13.41" height="13.41" transform="translate(1216.91 891.07) rotate(-180)"/><rect class="cls-11" x="408.59" y="425.78" width="25.03" height="13.41"/><rect class="cls-10" x="395.18" y="439.19" width="13.41" height="13.41"/><rect class="cls-10" x="433.62" y="439.19" width="13.41" height="13.41"/><path d="M613.42,120.58H228.29V355.77H613.6ZM241.89,343.28V133.08H599.83l.17,210.2Z"/><rect class="cls-12" x="318.58" y="209.91" width="64.02" height="60.09"/><rect class="cls-13" x="388.86" y="209.91" width="68.24" height="60.09"/><polygon class="cls-14" points="488.08 209.91 459.29 209.91 459.29 268.43 488.08 268.43 488.08 242.83 518.71 242.83 518.71 209.91 488.08 209.91"/><path class="cls-15" d="M314.66,209.91v-7.85h7.85v7.85Zm0,7.66v-7.66h7.85v7.66Zm0,7.85v-7.85h7.85v7.85Zm0,7.85v-7.85h7.85v7.85Zm0,7.82v-7.82h7.85v7.82Zm0,7.85v-7.85h7.85v7.85Zm0,7.81v-7.81h7.85v7.81Zm0,7.85v-7.85h7.85v7.85Zm0,7.66V264.6h7.85v7.66Zm7.85-62.35v-7.85h7.81v7.85Zm0,62.35V264.6h7.81v7.66Zm7.81,0V280h-7.81v-7.73Zm0-62.35v-7.85h7.85v7.85Zm0,62.35V264.6h7.85v7.66Zm7.85,0V280h-7.85v-7.73Zm0-62.35v-7.85h7.66v7.85Zm0,7.66v-7.66h7.66v7.66Zm0,7.85v-7.85h7.66v7.85Zm0,7.85v-7.85h7.66v7.85Zm0,15.67v-7.85h7.66v7.85Zm0,7.81v-7.81h7.66v7.81Zm0,7.85v-7.85h7.66v7.85Zm0,7.66V264.6h7.66v7.66Zm7.66,0V280h-7.66v-7.73Zm0-54.69v-7.66h7.85v7.66Zm0,7.85v-7.85h7.85v7.85Zm0,7.85v-7.85h7.85v7.85Zm0,15.67v-7.85h7.85v7.85Zm0,7.81v-7.81h7.85v7.81Zm0,7.85v-7.85h7.85v7.85Zm0,7.66V264.6h7.85v7.66Zm7.85,0V280h-7.85v-7.73Zm0-62.35v-7.85h7.85v7.85Zm0,7.66v-7.66h7.85v7.66Zm0,7.85v-7.85h7.85v7.85Zm0,7.85v-7.85h7.85v7.85Zm0,15.67v-7.85h7.85v7.85Zm0,7.81v-7.81h7.85v7.81Zm0,7.85v-7.85h7.85v7.85Zm0,7.66V264.6h7.85v7.66Zm7.85-62.35v-7.85h7.81v7.85Zm0,62.35V264.6h7.81v7.66Zm7.81,0V280h-7.81v-7.73Zm0-62.35v-7.85h7.86v7.85Zm0,62.35V264.6h7.86v7.66Zm7.86,0V280h-7.86v-7.73Zm0-62.35v-7.85H385v7.85Zm0,7.66v-7.66H385v7.66Zm0,7.85v-7.85H385v7.85Zm0,7.85v-7.85H385v7.85Zm0,7.82v-7.82H385v7.82Zm0,7.85v-7.85H385v7.85Zm0,7.81v-7.81H385v7.81Zm0,7.85v-7.85H385v7.85Zm0,7.66V264.6H385v7.66Zm7.81,0V280H377.2v-7.73Zm0-54.69v-7.66h7.69v7.66Zm0,7.85v-7.85h7.69v7.85Zm0,7.85v-7.85h7.69v7.85Zm0,7.82v-7.82h7.69v7.82Zm0,7.85v-7.85h7.69v7.85Zm0,7.81v-7.81h7.69v7.81Zm0,7.85v-7.85h7.69v7.85Zm0,7.66V264.6h7.69v7.66Zm7.69,0V280H385v-7.73Z"/><path class="cls-15" d="M385,217.57v-7.66h7.85v7.66Zm0,7.85v-7.85h7.85v7.85Zm0,7.85v-7.85h7.85v7.85Zm0,7.82v-7.82h7.85v7.82Zm0,7.85v-7.85h7.85v7.85Zm0,7.81v-7.81h7.85v7.81Zm0,7.85v-7.85h7.85v7.85Zm7.85-54.69v-7.85h7.81v7.85Zm0,7.66v-7.66h7.81v7.66Zm0,47v-7.85h7.81v7.85Zm0,7.66V264.6h7.81v7.66Zm7.81-62.35v-7.85h7.85v7.85Zm0,62.35V264.6h7.85v7.66Zm7.85,0V280h-7.85v-7.73Zm0-62.35v-7.85h7.66v7.85Zm0,15.51v-7.85h7.66v7.85Zm0,7.85v-7.85h7.66v7.85Zm0,7.82v-7.82h7.66v7.82Zm0,7.85v-7.85h7.66v7.85Zm0,7.81v-7.81h7.66v7.81Zm0,15.51V264.6h7.66v7.66Zm7.66,0V280h-7.66v-7.73Zm0-62.35v-7.85H424v7.85Zm0,15.51v-7.85H424v7.85Zm0,7.85v-7.85H424v7.85Zm0,7.82v-7.82H424v7.82Zm0,7.85v-7.85H424v7.85Zm0,7.81v-7.81H424v7.81Zm0,15.51V264.6H424v7.66Zm7.85,0V280h-7.85v-7.73Zm0-62.35v-7.85h7.85v7.85Zm0,15.51v-7.85h7.85v7.85Zm0,7.85v-7.85h7.85v7.85Zm0,7.82v-7.82h7.85v7.82Zm0,7.85v-7.85h7.85v7.85Zm0,7.81v-7.81h7.85v7.81Zm0,15.51V264.6h7.85v7.66Zm7.85,0V280H424v-7.73Zm0-62.35v-7.85h7.82v7.85Zm0,62.35V264.6h7.82v7.66Zm7.82,0V280h-7.82v-7.73Zm0-62.35v-7.85h7.85v7.85Zm0,7.66v-7.66h7.85v7.66Zm0,47v-7.85h7.85v7.85Zm0,7.66V264.6h7.85v7.66Zm7.85,0V280H439.7v-7.73Zm0-54.69v-7.66h7.81v7.66Zm0,7.85v-7.85h7.81v7.85Zm0,7.85v-7.85h7.81v7.85Zm0,7.82v-7.82h7.81v7.82Zm0,7.85v-7.85h7.81v7.85Zm0,7.81v-7.81h7.81v7.81Zm0,7.85v-7.85h7.81v7.85Zm0,7.66V264.6h7.81v7.66Zm7.81,0V280h-7.81v-7.73Zm0-46.84v-7.85h7.69v7.85Zm0,7.85v-7.85h7.69v7.85Zm0,7.82v-7.82h7.69v7.82Zm0,7.85v-7.85h7.69v7.85Zm0,7.81v-7.81h7.69v7.81Zm0,7.85v-7.85h7.69v7.85Zm0,7.66V264.6h7.69v7.66Z"/><path class="cls-15" d="M455.36,209.91v-7.85h7.85v7.85Zm0,7.66v-7.66h7.85v7.66Zm0,7.85v-7.85h7.85v7.85Zm0,7.85v-7.85h7.85v7.85Zm0,7.82v-7.82h7.85v7.82Zm0,7.85v-7.85h7.85v7.85Zm0,7.81v-7.81h7.85v7.81Zm0,7.85v-7.85h7.85v7.85Zm0,7.66V264.6h7.85v7.66Zm7.85-62.35v-7.85H471v7.85Zm0,62.35V264.6H471v7.66Zm7.81,0V280h-7.81v-7.73Zm0-62.35v-7.85h7.86v7.85Zm0,62.35V264.6h7.86v7.66Zm7.86,0V280H471v-7.73Zm0-62.35v-7.85h7.65v7.85Zm0,15.51v-7.85h7.65v7.85Zm0,7.85v-7.85h7.65v7.85Zm0,15.67v-7.85h7.65v7.85Zm0,7.81v-7.81h7.65v7.81Zm0,7.85v-7.85h7.65v7.85Zm0,7.66V264.6h7.65v7.66Zm7.65,0V280h-7.65v-7.73Zm0-62.35v-7.85h7.85v7.85Zm0,15.51v-7.85h7.85v7.85Zm0,7.85v-7.85h7.85v7.85Zm0,15.67v-7.85h7.85v7.85Zm0,7.81v-7.81h7.85v7.81Zm0,7.85v-7.85h7.85v7.85Zm0,7.66V264.6h7.85v7.66Zm7.85,0V280h-7.85v-7.73Zm0-62.35v-7.85h7.85v7.85Zm0,15.51v-7.85h7.85v7.85Zm0,7.85v-7.85h7.85v7.85Zm0,15.67v-7.85h7.85v7.85Zm0,7.81v-7.81h7.85v7.81Zm7.85-46.84v-7.85h7.82v7.85Zm0,15.51v-7.85h7.82v7.85Zm0,7.85v-7.85h7.82v7.85Zm0,15.67v-7.85h7.82v7.85Zm0,7.81v-7.81h7.82v7.81Zm7.82-46.84v-7.85h7.85v7.85Zm0,15.51v-7.85h7.85v7.85Zm0,7.85v-7.85h7.85v7.85Zm0,7.82v-7.82h7.85v7.82Zm0,7.85v-7.85h7.85v7.85Zm0,7.81v-7.81h7.85v7.81Zm7.85-46.84v-7.85h7.81v7.85Zm0,7.66v-7.66h7.81v7.66Zm0,7.85v-7.85h7.81v7.85Zm0,7.85v-7.85h7.81v7.85Zm0,7.82v-7.82h7.81v7.82Zm0,7.85v-7.85h7.81v7.85Zm0,7.81v-7.81h7.81v7.81Zm7.81-39.18v-7.66h7.7v7.66Zm0,7.85v-7.85h7.7v7.85Zm0,7.85v-7.85h7.7v7.85Z"/><rect class="cls-5" x="203.16" y="453.34" width="13.41" height="13.41"/><rect class="cls-5" x="203.16" y="439.19" width="13.41" height="13.41"/><rect class="cls-5" x="189.75" y="453.34" width="13.41" height="13.41"/></g></svg>