<svg xmlns="http://www.w3.org/2000/svg" xmlns:xlink="http://www.w3.org/1999/xlink" viewBox="0 0 841.89 595.28"><defs><style>.cls-1,.cls-2,.cls-3,.cls-4{fill:#bcbec0;}.cls-1,.cls-2,.cls-3{stroke:#bcbec0;}.cls-1,.cls-10,.cls-11,.cls-12,.cls-2,.cls-3,.cls-4,.cls-5,.cls-6,.cls-7,.cls-8,.cls-9{stroke-miterlimit:10;}.cls-1{stroke-width:1.24px;}.cls-2{stroke-width:1.7px;}.cls-3{stroke-width:6.32px;}.cls-4,.cls-5,.cls-6,.cls-7,.cls-8{stroke:#808285;}.cls-12,.cls-4,.cls-5,.cls-9{stroke-width:1.16px;}.cls-5,.cls-6,.cls-7,.cls-8{fill:#808285;}.cls-6{stroke-width:7.21px;}.cls-7{stroke-width:6.59px;}.cls-8{stroke-width:5.83px;}.cls-10,.cls-11,.cls-16,.cls-9{fill:#231f20;}.cls-10,.cls-11,.cls-12,.cls-9{stroke:#231f20;}.cls-10{stroke-width:1.34px;}.cls-11{stroke-width:1.83px;}.cls-12{fill:url(#linear-gradient);}.cls-13{fill:#ed1c24;}.cls-14{fill:#fff200;}.cls-15{fill:#2e3192;}</style><linearGradient id="linear-gradient" x1="420.94" y1="354.75" x2="420.94" y2="129.3" gradientUnits="userSpaceOnUse"><stop offset="0.01" stop-color="#231f20"/><stop offset="0.06" stop-color="#3a3534"/><stop offset="0.23" stop-color="#7c736b"/><stop offset="0.36" stop-color="#a4998e"/><stop offset="0.42" stop-color="#b4a89b"/><stop offset="0.58" stop-color="#c7beb4"/><stop offset="0.92" stop-color="#f7f6f5"/><stop offset="0.97" stop-color="#fff"/></linearGradient></defs><g id="Layer_3" data-name="Layer 3"><rect class="cls-1" x="180.17" y="442.65" width="17.83" height="15.57"/><rect class="cls-1" x="169.53" y="442.65" width="17.83" height="15.57"/><rect class="cls-1" x="169.26" y="457.03" width="17.83" height="15.57"/><rect class="cls-1" x="153.42" y="457.03" width="17.83" height="15.57"/><rect class="cls-2" x="138.59" y="472.21" width="33.53" height="15.57"/><rect class="cls-3" x="187.37" y="426.09" width="464.54" height="15.57"/><rect class="cls-4" x="199.54" y="100.53" width="441.04" height="297.08"/><rect class="cls-5" x="671.72" y="473.39" width="14.39" height="14.39"/><rect class="cls-5" x="686.99" y="473.39" width="14.39" height="14.39"/><rect class="cls-5" x="671.72" y="458.12" width="14.39" height="14.39"/><rect class="cls-5" x="199.54" y="398.31" width="441.04" height="14.39"/><rect class="cls-6" x="127.8" y="501.77" width="558.3" height="14.39"/><rect class="cls-7" x="201.75" y="457.62" width="466.42" height="14.39"/><rect class="cls-8" x="201.75" y="445.37" width="466.42" height="11.27"/><rect class="cls-7" x="201.75" y="473" width="466.42" height="14.39"/><rect class="cls-9" x="199.54" y="87.13" width="441.04" height="13.4"/><rect class="cls-9" x="200.32" y="412.69" width="440.26" height="13.4"/><rect class="cls-9" x="184.56" y="100.53" width="14.98" height="325.56"/><rect class="cls-9" x="640.58" y="100.53" width="14.98" height="325.56"/><rect class="cls-9" x="168.99" y="426.09" width="15.57" height="15.57"/><rect class="cls-9" x="153.42" y="441.66" width="15.57" height="15.57"/><rect class="cls-9" x="137.85" y="457.23" width="15.57" height="15.57"/><rect class="cls-9" x="122.28" y="472.8" width="15.57" height="15.57"/><rect class="cls-9" x="655.56" y="426.09" width="15.57" height="15.57"/><rect class="cls-9" x="671.13" y="441.66" width="15.57" height="15.57"/><rect class="cls-9" x="686.69" y="457.23" width="15.57" height="15.57"/><rect class="cls-9" x="702.26" y="472.8" width="15.57" height="15.57"/><rect class="cls-9" x="110.26" y="488.37" width="621.36" height="13.2"/><rect class="cls-9" x="124.65" y="516.35" width="592.2" height="14.78"/><rect class="cls-9" x="110.26" y="501.57" width="14.39" height="14.78"/><rect class="cls-9" x="686.69" y="501.57" width="44.93" height="14.78"/><rect class="cls-9" x="212.74" y="382.05" width="15.57" height="15.57"/><rect class="cls-9" x="286.84" y="382.05" width="15.57" height="15.57"/><rect class="cls-9" x="242.3" y="382.05" width="30.94" height="15.57"/><rect class="cls-10" x="231.86" y="443.24" width="14.39" height="14.39"/><rect class="cls-10" x="217.47" y="457.62" width="14.39" height="14.39"/><rect class="cls-10" x="273.24" y="443.24" width="14.39" height="14.39"/><rect class="cls-10" x="258.85" y="457.62" width="14.39" height="14.39"/><rect class="cls-10" x="318.54" y="443.24" width="14.39" height="14.39"/><rect class="cls-10" x="304.16" y="457.62" width="14.39" height="14.39"/><rect class="cls-10" x="363.12" y="443.24" width="14.39" height="14.39"/><rect class="cls-10" x="348.73" y="457.62" width="14.39" height="14.39"/><rect class="cls-10" x="466.87" y="443.24" width="14.39" height="14.39" transform="translate(948.14 900.86) rotate(-180)"/><rect class="cls-10" x="481.26" y="457.62" width="14.39" height="14.39" transform="translate(976.91 929.63) rotate(-180)"/><rect class="cls-10" x="510.64" y="443.24" width="14.39" height="14.39" transform="translate(1035.67 900.86) rotate(-180)"/><rect class="cls-10" x="525.03" y="457.62" width="14.39" height="14.39" transform="translate(1064.44 929.63) rotate(-180)"/><rect class="cls-10" x="554.56" y="442.84" width="14.39" height="14.39" transform="translate(1123.5 900.07) rotate(-180)"/><rect class="cls-10" x="568.94" y="457.23" width="14.39" height="14.39" transform="translate(1152.28 928.85) rotate(-180)"/><rect class="cls-10" x="600.48" y="442.84" width="14.39" height="14.39" transform="translate(1215.34 900.07) rotate(-180)"/><rect class="cls-10" x="614.86" y="457.23" width="14.39" height="14.39" transform="translate(1244.11 928.85) rotate(-180)"/><rect class="cls-11" x="407.69" y="443.24" width="26.85" height="14.39"/><rect class="cls-10" x="393.31" y="457.62" width="14.39" height="14.39"/><rect class="cls-10" x="434.54" y="457.62" width="14.39" height="14.39"/><polygon class="cls-9" points="627.57 368.15 214.32 368.15 214.32 115.9 627.38 115.9 627.57 368.15"/><polygon class="cls-12" points="612.99 354.75 228.9 354.75 228.9 129.3 612.81 129.3 612.99 354.75"/><rect class="cls-13" x="311.16" y="211.71" width="68.66" height="64.45"/><rect class="cls-14" x="386.53" y="211.71" width="73.19" height="64.45"/><polygon class="cls-15" points="492.94 211.71 462.07 211.71 462.07 274.47 492.94 274.47 492.94 247.02 525.81 247.02 525.81 211.71 492.94 211.71"/><path class="cls-16" d="M307,211.71v-8.42h8.42v8.42Zm0,8.22v-8.22h8.42v8.22Zm0,8.42v-8.42h8.42v8.42Zm0,8.42v-8.42h8.42v8.42Zm0,8.38v-8.38h8.42v8.38Zm0,8.42v-8.42h8.42v8.42Zm0,8.38v-8.38h8.42V262Zm0,8.42V262h8.42v8.42Zm0,8.21v-8.21h8.42v8.21Zm8.42-66.87v-8.42h8.38v8.42Zm0,66.87v-8.21h8.38v8.21Zm8.38,0v8.29h-8.38v-8.29Zm0-66.87v-8.42h8.42v8.42Zm0,66.87v-8.21h8.42v8.21Zm8.42,0v8.29h-8.42v-8.29Zm0-66.87v-8.42h8.21v8.42Zm0,8.22v-8.22h8.21v8.22Zm0,8.42v-8.42h8.21v8.42Zm0,8.42v-8.42h8.21v8.42Zm0,16.8v-8.42h8.21v8.42Zm0,8.38v-8.38h8.21V262Zm0,8.42V262h8.21v8.42Zm0,8.21v-8.21h8.21v8.21Zm8.21,0v8.29h-8.21v-8.29Zm0-58.65v-8.22h8.42v8.22Zm0,8.42v-8.42h8.42v8.42Zm0,8.42v-8.42h8.42v8.42Zm0,16.8v-8.42h8.42v8.42Zm0,8.38v-8.38h8.42V262Zm0,8.42V262h8.42v8.42Zm0,8.21v-8.21h8.42v8.21Zm8.42,0v8.29h-8.42v-8.29Zm0-66.87v-8.42h8.42v8.42Zm0,8.22v-8.22h8.42v8.22Zm0,8.42v-8.42h8.42v8.42Zm0,8.42v-8.42h8.42v8.42Zm0,16.8v-8.42h8.42v8.42Zm0,8.38v-8.38h8.42V262Zm0,8.42V262h8.42v8.42Zm0,8.21v-8.21h8.42v8.21Zm8.42-66.87v-8.42h8.38v8.42Zm0,66.87v-8.21h8.38v8.21Zm8.38,0v8.29h-8.38v-8.29Zm0-66.87v-8.42H374v8.42Zm0,66.87v-8.21H374v8.21Zm8.42,0v8.29H365.6v-8.29Zm0-66.87v-8.42h8.38v8.42Zm0,8.22v-8.22h8.38v8.22Zm0,8.42v-8.42h8.38v8.42Zm0,8.42v-8.42h8.38v8.42Zm0,8.38v-8.38h8.38v8.38Zm0,8.42v-8.42h8.38v8.42Zm0,8.38v-8.38h8.38V262Zm0,8.42V262h8.38v8.42Zm0,8.21v-8.21h8.38v8.21Zm8.38,0v8.29H374v-8.29Zm0-58.65v-8.22h8.25v8.22Zm0,8.42v-8.42h8.25v8.42Zm0,8.42v-8.42h8.25v8.42Zm0,8.38v-8.38h8.25v8.38Zm0,8.42v-8.42h8.25v8.42Zm0,8.38v-8.38h8.25V262Zm0,8.42V262h8.25v8.42Zm0,8.21v-8.21h8.25v8.21Zm8.25,0v8.29H382.4v-8.29Z"/><path class="cls-16" d="M382.4,219.93v-8.22h8.42v8.22Zm0,8.42v-8.42h8.42v8.42Zm0,8.42v-8.42h8.42v8.42Zm0,8.38v-8.38h8.42v8.38Zm0,8.42v-8.42h8.42v8.42Zm0,8.38v-8.38h8.42V262Zm0,8.42V262h8.42v8.42Zm8.42-58.66v-8.42h8.38v8.42Zm0,8.22v-8.22h8.38v8.22Zm0,50.44V262h8.38v8.42Zm0,8.21v-8.21h8.38v8.21Zm8.38-66.87v-8.42h8.42v8.42Zm0,66.87v-8.21h8.42v8.21Zm8.42,0v8.29H399.2v-8.29Zm0-66.87v-8.42h8.21v8.42Zm0,16.64v-8.42h8.21v8.42Zm0,8.42v-8.42h8.21v8.42Zm0,8.38v-8.38h8.21v8.38Zm0,8.42v-8.42h8.21v8.42Zm0,8.38v-8.38h8.21V262Zm0,16.63v-8.21h8.21v8.21Zm8.21,0v8.29h-8.21v-8.29Zm0-66.87v-8.42h8.43v8.42Zm0,16.64v-8.42h8.43v8.42Zm0,8.42v-8.42h8.43v8.42Zm0,8.38v-8.38h8.43v8.38Zm0,8.42v-8.42h8.43v8.42Zm0,8.38v-8.38h8.43V262Zm0,16.63v-8.21h8.43v8.21Zm8.43,0v8.29h-8.43v-8.29Zm0-66.87v-8.42h8.42v8.42Zm0,16.64v-8.42h8.42v8.42Zm0,8.42v-8.42h8.42v8.42Zm0,8.38v-8.38h8.42v8.38Zm0,8.42v-8.42h8.42v8.42Zm0,8.38v-8.38h8.42V262Zm0,16.63v-8.21h8.42v8.21Zm8.42,0v8.29h-8.42v-8.29Zm0-66.87v-8.42h8.38v8.42Zm0,66.87v-8.21h8.38v8.21Zm8.38,0v8.29h-8.38v-8.29Zm0-66.87v-8.42h8.42v8.42Zm0,8.22v-8.22h8.42v8.22Zm0,50.44V262h8.42v8.42Zm0,8.21v-8.21h8.42v8.21Zm8.42,0v8.29h-8.42v-8.29Zm0-58.65v-8.22h8.38v8.22Zm0,8.42v-8.42h8.38v8.42Zm0,8.42v-8.42h8.38v8.42Zm0,8.38v-8.38h8.38v8.38Zm0,8.42v-8.42h8.38v8.42Zm0,8.38v-8.38h8.38V262Zm0,8.42V262h8.38v8.42Zm0,8.21v-8.21h8.38v8.21Zm8.38,0v8.29h-8.38v-8.29Zm0-50.23v-8.42h8.25v8.42Zm0,8.42v-8.42h8.25v8.42Zm0,8.38v-8.38h8.25v8.38Zm0,8.42v-8.42h8.25v8.42Zm0,8.38v-8.38h8.25V262Zm0,8.42V262h8.25v8.42Zm0,8.21v-8.21h8.25v8.21Z"/><path class="cls-16" d="M457.86,211.71v-8.42h8.42v8.42Zm0,8.22v-8.22h8.42v8.22Zm0,8.42v-8.42h8.42v8.42Zm0,8.42v-8.42h8.42v8.42Zm0,8.38v-8.38h8.42v8.38Zm0,8.42v-8.42h8.42v8.42Zm0,8.38v-8.38h8.42V262Zm0,8.42V262h8.42v8.42Zm0,8.21v-8.21h8.42v8.21Zm8.42-66.87v-8.42h8.38v8.42Zm0,66.87v-8.21h8.38v8.21Zm8.38,0v8.29h-8.38v-8.29Zm0-66.87v-8.42h8.42v8.42Zm0,66.87v-8.21h8.42v8.21Zm8.42,0v8.29h-8.42v-8.29Zm0-66.87v-8.42h8.21v8.42Zm0,16.64v-8.42h8.21v8.42Zm0,8.42v-8.42h8.21v8.42Zm0,16.8v-8.42h8.21v8.42Zm0,8.38v-8.38h8.21V262Zm0,8.42V262h8.21v8.42Zm0,8.21v-8.21h8.21v8.21Zm8.21,0v8.29h-8.21v-8.29Zm0-66.87v-8.42h8.42v8.42Zm0,16.64v-8.42h8.42v8.42Zm0,8.42v-8.42h8.42v8.42Zm0,16.8v-8.42h8.42v8.42Zm0,8.38v-8.38h8.42V262Zm0,8.42V262h8.42v8.42Zm0,8.21v-8.21h8.42v8.21Zm8.42,0v8.29h-8.42v-8.29Zm0-66.87v-8.42h8.42v8.42Zm0,16.64v-8.42h8.42v8.42Zm0,8.42v-8.42h8.42v8.42Zm0,16.8v-8.42h8.42v8.42Zm0,8.38v-8.38h8.42V262Zm8.42-50.24v-8.42h8.38v8.42Zm0,16.64v-8.42h8.38v8.42Zm0,8.42v-8.42h8.38v8.42Zm0,16.8v-8.42h8.38v8.42Zm0,8.38v-8.38h8.38V262Zm8.38-50.24v-8.42h8.42v8.42Zm0,16.64v-8.42h8.42v8.42Zm0,8.42v-8.42h8.42v8.42Zm0,8.38v-8.38h8.42v8.38Zm0,8.42v-8.42h8.42v8.42Zm0,8.38v-8.38h8.42V262Zm8.42-50.24v-8.42h8.38v8.42Zm0,8.22v-8.22h8.38v8.22Zm0,8.42v-8.42h8.38v8.42Zm0,8.42v-8.42h8.38v8.42Zm0,8.38v-8.38h8.38v8.38Zm0,8.42v-8.42h8.38v8.42Zm0,8.38v-8.38h8.38V262Zm8.38-42v-8.22h8.25v8.22Zm0,8.42v-8.42h8.25v8.42Zm0,8.42v-8.42h8.25v8.42Z"/><rect class="cls-5" x="187.37" y="472.8" width="14.39" height="14.39"/><rect class="cls-5" x="187.37" y="457.62" width="14.39" height="14.39"/><rect class="cls-5" x="172.98" y="472.8" width="14.39" height="14.39"/></g></svg>